<svg width="56" height="53" viewBox="0 0 56 53" fill="none" xmlns="http://www.w3.org/2000/svg">
<path d="M39.235 5.635C38.885 6.825 38.5 8.225 38.5 10.92L48.58 21H50.75V30.8L43.925 32.305L39.76 47.25H33.25V42H17.5V47.25H10.955C8.715 39.41 5.25 26.11 5.25 21C5.25 15.225 9.975 10.5 15.75 10.5H32.9C34.055 8.505 36.155 6.475 39.235 5.635ZM42 0C34.405 0 30.275 5.25 30.275 5.25H15.75C7.175 5.25 0 12.145 0 21C0 29.155 7 52.5 7 52.5H22.75V47.25H28V52.5H43.75L48.125 36.75L56 35V15.75H50.75L43.75 8.75C43.75 7.49 45.5 5.32 45.5 3.5C45.5 1.575 43.925 0 42 0ZM31.5 19.25H17.5V14H31.5V19.25ZM39.375 24.5C37.94 24.5 36.75 23.31 36.75 21.875C36.75 20.44 37.94 19.25 39.375 19.25C40.81 19.25 42 20.44 42 21.875C42 23.31 40.81 24.5 39.375 24.5Z" fill="white"/>
</svg>
