<svg width="43" height="57" viewBox="0 0 43 57" fill="none" xmlns="http://www.w3.org/2000/svg">
<path d="M37.3333 19.1667H34.6667V13.8333C34.6667 6.47333 28.6933 0.5 21.3333 0.5C13.9733 0.5 8 6.47333 8 13.8333V19.1667H5.33333C2.4 19.1667 0 21.5667 0 24.5V51.1667C0 54.1 2.4 56.5 5.33333 56.5H37.3333C40.2667 56.5 42.6667 54.1 42.6667 51.1667V24.5C42.6667 21.5667 40.2667 19.1667 37.3333 19.1667ZM13.3333 13.8333C13.3333 9.40667 16.9067 5.83333 21.3333 5.83333C25.76 5.83333 29.3333 9.40667 29.3333 13.8333V19.1667H13.3333V13.8333ZM37.3333 51.1667H5.33333V24.5H37.3333V51.1667ZM21.3333 43.1667C24.2667 43.1667 26.6667 40.7667 26.6667 37.8333C26.6667 34.9 24.2667 32.5 21.3333 32.5C18.4 32.5 16 34.9 16 37.8333C16 40.7667 18.4 43.1667 21.3333 43.1667Z" fill="white"/>
</svg>
