<svg width="38" height="38" viewBox="0 0 38 38" fill="none" xmlns="http://www.w3.org/2000/svg">
<path fill-rule="evenodd" clip-rule="evenodd" d="M19 38C29.4934 38 38 29.4934 38 19C38 8.50659 29.4934 0 19 0C8.50659 0 0 8.50659 0 19C0 29.4934 8.50659 38 19 38ZM29.4687 20.2848C28.9762 18.1893 27.0062 16.7101 24.5437 16.7101C21.7119 16.7101 19.4956 18.8056 19.4956 21.3942C19.4956 22.6268 19.9881 23.6129 20.7269 24.4758C15.3094 24.3525 11.0001 20.0383 11.0001 14.7379C11.0001 9.31428 15.5557 5 21.0962 5C24.5437 5 27.6218 6.47921 30.5768 9.80734C34.1903 14.3123 34.4474 19.7376 33.5894 22.8598C32.7313 25.982 29.468 30.3367 26.8126 31C27.0855 30.3632 27.3919 29.72 27.7015 29.0699C29.0338 26.2726 30.4256 23.3505 29.4687 20.2848Z" fill="white"/>
</svg>
