<svg width="27" height="26" viewBox="0 0 27 26" fill="none" xmlns="http://www.w3.org/2000/svg">
<path d="M12.7267 0.717387C13.038 -0.178173 14.3046 -0.178173 14.6159 0.717387L17.2046 8.16501C17.342 8.56008 17.7107 8.82795 18.1288 8.83647L26.0119 8.99711C26.9598 9.01643 27.3512 10.221 26.5957 10.7938L20.3126 15.5573C19.9793 15.81 19.8384 16.2434 19.9596 16.6438L22.2428 24.1907C22.5173 25.0982 21.4927 25.8426 20.7145 25.3011L14.2425 20.7975C13.8992 20.5586 13.4434 20.5586 13.1001 20.7975L6.62814 25.3011C5.8499 25.8426 4.82525 25.0982 5.0998 24.1907L7.38303 16.6438C7.50415 16.2434 7.36332 15.81 7.03002 15.5573L0.746893 10.7938C-0.0086391 10.221 0.382741 9.01643 1.33067 8.99711L9.21375 8.83647C9.63192 8.82795 10.0006 8.56008 10.1379 8.16501L12.7267 0.717387Z" fill="url(#paint0_linear)"/>
<defs>
<linearGradient id="paint0_linear" x1="-2.3287" y1="-5.72093" x2="26.3225" y2="43.0233" gradientUnits="userSpaceOnUse">
<stop stop-color="#FFC700"/>
<stop offset="1" stop-color="#FF782D"/>
</linearGradient>
</defs>
</svg>
