<svg width="33" height="26" viewBox="0 0 33 26" fill="none" xmlns="http://www.w3.org/2000/svg">
<path d="M11.0387 25.9978C23.1132 25.9978 29.7184 15.993 29.7184 7.3321C29.7184 7.05214 29.7184 6.76817 29.7064 6.48821C30.9923 5.5573 32.1022 4.40477 32.984 3.08463C31.7828 3.61427 30.5098 3.96334 29.2064 4.1205C30.5793 3.29988 31.6076 2.00871 32.1001 0.486959C30.8102 1.25111 29.3985 1.78754 27.9266 2.07276C26.9371 1.01894 25.6277 0.320815 24.2012 0.0865242C22.7748 -0.147767 21.3109 0.0948511 20.0363 0.776798C18.7617 1.45874 17.7475 2.54196 17.1509 3.85866C16.5542 5.17536 16.4084 6.65205 16.736 8.06001C14.1258 7.92913 11.5723 7.25105 9.24103 6.06975C6.90978 4.88844 4.85286 3.2303 3.2037 1.20287C2.36648 2.64886 2.11098 4.35928 2.48908 5.9868C2.86718 7.61433 3.85053 9.03695 5.23944 9.96577C4.19865 9.93041 3.18074 9.65093 2.26782 9.14988V9.23987C2.26961 10.7546 2.79436 12.2223 3.75338 13.3949C4.71239 14.5674 6.04684 15.3728 7.53116 15.6751C6.96775 15.8303 6.38576 15.9076 5.80137 15.905C5.38939 15.9063 4.97824 15.8681 4.57353 15.791C4.99305 17.095 5.80992 18.2351 6.90973 19.0516C8.00954 19.8681 9.3372 20.3202 10.7068 20.3445C8.38016 22.1719 5.50621 23.1629 2.54778 23.1581C2.02649 23.1603 1.50556 23.1303 0.987976 23.0681C3.99063 24.9824 7.47776 25.9989 11.0387 25.9978Z" fill="#BBC8EB"/>
</svg>
