<svg width="33" height="26" viewBox="0 0 33 26" fill="none" xmlns="http://www.w3.org/2000/svg">
<path d="M11.0387 25.9978C23.1132 25.9978 29.7183 15.9931 29.7183 7.33214C29.7183 7.05218 29.7183 6.76821 29.7063 6.48825C30.9923 5.55734 32.1021 4.40481 32.9839 3.08467C31.7827 3.61431 30.5097 3.96337 29.2064 4.12054C30.5793 3.29992 31.6075 2.00874 32.1 0.486997C30.8102 1.25115 29.3984 1.78758 27.9265 2.0728C26.937 1.01898 25.6276 0.320853 24.2012 0.0865623C22.7747 -0.147729 21.3108 0.0948892 20.0362 0.776836C18.7616 1.45878 17.7474 2.542 17.1508 3.8587C16.5542 5.1754 16.4083 6.65209 16.7359 8.06005C14.1258 7.92917 11.5722 7.25109 9.24097 6.06979C6.90971 4.88848 4.8528 3.23034 3.20364 1.20291C2.36642 2.64889 2.11092 4.35931 2.48902 5.98684C2.86712 7.61437 3.85047 9.03699 5.23938 9.96581C4.19859 9.93045 3.18068 9.65097 2.26776 9.14991V9.2399C2.26955 10.7547 2.7943 12.2224 3.75332 13.3949C4.71233 14.5674 6.04678 15.3729 7.5311 15.6751C6.96769 15.8303 6.3857 15.9077 5.80131 15.9051C5.38933 15.9063 4.97818 15.8682 4.57347 15.7911C4.99299 17.095 5.80986 18.2351 6.90967 19.0516C8.00948 19.8682 9.33714 20.3202 10.7067 20.3445C8.3801 22.1719 5.50615 23.163 2.54772 23.1582C2.02643 23.1604 1.5055 23.1303 0.987915 23.0682C3.99057 24.9825 7.4777 25.9989 11.0387 25.9978Z" fill="#BBC8EB"/>
</svg>
